<svg xmlns="http://www.w3.org/2000/svg" viewBox="0 0 48 48" fill="none">
    <path d="M24 2.5L42 9.5V22C42 33.5 34.7 42 24 45.5C13.3 42 6 33.5 6 22V9.5L24 2.5Z" fill="#0f6e56"/>
    <path d="M24 2.5L42 9.5V22C42 33.5 34.7 42 24 45.5V2.5Z" fill="#0c5a46"/>
    <rect x="15.5" y="20" width="17" height="16.5" rx="1.5" fill="#ffffff" fill-opacity="0.95"/>
    <rect x="18" y="23" width="3" height="3" rx="0.6" fill="#0c5a46"/>
    <rect x="22.5" y="23" width="3" height="3" rx="0.6" fill="#0c5a46"/>
    <rect x="27" y="23" width="3" height="3" rx="0.6" fill="#0c5a46"/>
    <rect x="18" y="27.5" width="3" height="3" rx="0.6" fill="#0c5a46"/>
    <rect x="22.5" y="27.5" width="3" height="3" rx="0.6" fill="#0c5a46"/>
    <rect x="27" y="27.5" width="3" height="3" rx="0.6" fill="#0c5a46"/>
    <rect x="22" y="32" width="4" height="4.5" rx="0.6" fill="#0c5a46"/>
</svg>
